<svg width="103" height="42" viewBox="0 0 103 42" fill="none" xmlns="http://www.w3.org/2000/svg">
<path d="M42.1012 12.2257C42.4796 12.465 43.0467 12.6545 43.6339 12.6545C44.51 12.6545 45.0271 12.1958 45.0271 11.5278C45.0271 10.9096 44.669 10.5506 43.7734 10.2116C42.6885 9.82276 42.0217 9.25445 42.0217 8.32716C42.0217 7.29019 42.8775 6.52246 44.1713 6.52246C44.8483 6.52246 45.3459 6.68199 45.6343 6.84152L45.3954 7.54943C45.1865 7.41981 44.7387 7.23038 44.1417 7.23038C43.2259 7.23038 42.8876 7.76877 42.8876 8.22744C42.8876 8.84564 43.2957 9.14475 44.2111 9.5037C45.3358 9.94242 45.9032 10.4908 45.9032 11.458C45.9032 12.4251 45.1565 13.3724 43.5841 13.3724C42.9473 13.3724 42.2407 13.1829 41.8923 12.9436L42.1211 12.2257H42.1012Z" fill="#0A0F1A"/>
<path d="M49.3171 6.62207V9.40388H52.522V6.62207H53.3876V13.2626H52.522V10.1417H49.3171V13.2626H48.4512V6.62207H49.3171Z" fill="#0A0F1A"/>
<path d="M62.0267 9.88261C62.0267 12.1659 60.6432 13.3823 58.9515 13.3823C57.2594 13.3823 55.9656 12.0163 55.9656 10.0122C55.9656 8.0081 57.2695 6.52246 59.0411 6.52246C60.8127 6.52246 62.0267 7.90839 62.0267 9.89256V9.88261ZM56.8713 9.98232C56.8713 11.4081 57.6378 12.6744 58.9912 12.6744C60.3447 12.6744 61.121 11.4281 61.121 9.91251C61.121 8.5864 60.4343 7.21043 59.0111 7.21043C57.5879 7.21043 56.8814 8.52658 56.8814 9.98232H56.8713Z" fill="#0A0F1A"/>
<path d="M64.6138 6.70189C65.0319 6.63212 65.5693 6.57227 66.2661 6.57227C67.102 6.57227 67.7291 6.77169 68.127 7.12069C68.4855 7.43975 68.7143 7.91833 68.7143 8.50662C68.7143 9.09487 68.535 9.58345 68.1967 9.93245C67.7388 10.421 67.0023 10.6603 66.1664 10.6603C65.9076 10.6603 65.6687 10.6603 65.4696 10.6005V13.2626H64.6138V6.70189ZM65.4696 9.9025C65.659 9.96235 65.8975 9.98227 66.1761 9.98227C67.2112 9.98227 67.8386 9.47378 67.8386 8.56643C67.8386 7.65909 67.2115 7.26027 66.2759 7.26027C65.8978 7.26027 65.6188 7.30013 65.4696 7.33008V9.9125V9.9025Z" fill="#0A0F1A"/>
<path d="M72.1181 6.62207V13.2626H71.2522V6.62207H72.1181Z" fill="#0A0F1A"/>
<path d="M75.0237 6.62207H78.5965V7.33994H75.8896V9.55345H78.3974V10.2614H75.8896V13.2726H75.0237V6.62207Z" fill="#0A0F1A"/>
<path d="M82.9364 13.2726V10.4508L80.8367 6.62207H81.8219L82.7575 8.45667C83.0062 8.95521 83.2151 9.36402 83.4142 9.83264H83.4341C83.6133 9.39393 83.8421 8.95521 84.1009 8.45667L85.0564 6.62207H86.0318L83.8125 10.4408V13.2726H82.9465H82.9364Z" fill="#0A0F1A"/>
<path d="M42.161 17.8095C42.599 17.7298 43.2062 17.6699 44.0125 17.6699C44.8983 17.6699 45.5448 17.8594 45.963 18.2084C46.3612 18.5374 46.6099 19.0559 46.6099 19.684C46.6099 20.3122 46.4107 20.8307 46.0425 21.1896C45.5549 21.6782 44.8086 21.9075 43.9427 21.9075C43.7136 21.9075 43.5148 21.8975 43.3457 21.8576V24.3703H42.1411V17.8095H42.161ZM43.3655 20.9104C43.5246 20.9503 43.7136 20.9703 43.9626 20.9703C44.8683 20.9703 45.4255 20.5216 45.4255 19.7439C45.4255 19.016 44.9181 18.6172 44.0721 18.6172C43.7436 18.6172 43.4949 18.6471 43.3655 18.677V20.9204V20.9104Z" fill="#0A0F1A"/>
<path d="M49.0781 17.7192H50.2921V23.3427H53.0192V24.3598H49.0781V17.7192Z" fill="#0A0F1A"/>
<path d="M56.8907 22.4853L56.3237 24.3598H55.0696L57.1993 17.7192H58.7418L60.9016 24.3598H59.598L59.0006 22.4853H56.8907ZM58.7917 21.5679L58.2741 19.9327C58.1448 19.5239 58.0353 19.0653 57.9359 18.6864H57.916C57.8162 19.0753 57.7169 19.5339 57.5972 19.9327L57.0898 21.5779H58.8018L58.7917 21.5679Z" fill="#0A0F1A"/>
<path d="M64.1162 18.7465H62.2253V17.7295H67.2413V18.7465H65.3305V24.37H64.1162V18.7465Z" fill="#0A0F1A"/>
<path d="M70.6953 17.7192V24.3598H69.481V17.7192H70.6953Z" fill="#0A0F1A"/>
<path d="M73.5015 24.3697V17.7292H74.8849L76.5969 20.5808C77.0345 21.3187 77.4227 22.0864 77.7212 22.8043H77.7411C77.6515 21.9169 77.6316 21.0594 77.6316 20.0424V17.7192H78.7563V24.3598H77.5022L75.7707 21.4383C75.3526 20.7104 74.9048 19.9028 74.5864 19.145H74.5564C74.6063 20.0125 74.616 20.8899 74.616 21.9867V24.3598H73.4917L73.5015 24.3697Z" fill="#0A0F1A"/>
<path d="M82.7873 17.7192V21.5879C82.7873 22.8841 83.3247 23.4923 84.1505 23.4923C85.0266 23.4923 85.5441 22.894 85.5441 21.5879V17.7192H86.7581V21.5181C86.7581 23.5621 85.7031 24.4794 84.1007 24.4794C82.4985 24.4794 81.573 23.6219 81.573 21.5281V17.7292H82.7873V17.7192Z" fill="#0A0F1A"/>
<path d="M95.1278 21.658C95.0881 20.8005 95.0483 19.7635 95.0483 18.8661H95.0183C94.7993 19.6838 94.5207 20.5811 94.2323 21.4186L93.2568 24.2903H92.3212L91.4455 21.4585C91.1867 20.6011 90.9478 19.7037 90.7787 18.8661H90.7588C90.7288 19.7336 90.6891 20.8005 90.6392 21.6978L90.4899 24.37H89.3652L89.8033 17.7295H91.3956L92.2615 20.4016C92.5004 21.1894 92.7093 21.977 92.8687 22.7149H92.8987C93.0776 21.987 93.3067 21.1794 93.5655 20.3917L94.4809 17.7295H96.0534L96.4318 24.37H95.2474L95.1181 21.658H95.1278Z" fill="#0A0F1A"/>
<path d="M42.2209 28.907C42.6391 28.8372 43.1765 28.7773 43.8733 28.7773C44.7092 28.7773 45.3362 28.9767 45.7342 29.3257C46.0927 29.6448 46.3214 30.1234 46.3214 30.7117C46.3214 31.3 46.1422 31.7885 45.8039 32.1375C45.346 32.6261 44.6098 32.8654 43.7735 32.8654C43.5148 32.8654 43.2759 32.8654 43.0768 32.8055V35.4677H42.2209V28.907ZM43.0768 32.1076C43.2661 32.1674 43.5047 32.1873 43.7837 32.1873C44.8187 32.1873 45.4458 31.6788 45.4458 30.7715C45.4458 29.8642 44.8187 29.4653 43.883 29.4653C43.505 29.4653 43.2264 29.5052 43.0768 29.5351V32.1175V32.1076Z" fill="#0A0F1A"/>
<path d="M49.5859 33.3838L48.8989 35.4677H48.0134L50.2726 28.8271H51.3076L53.5769 35.4677H52.6611L51.9545 33.3838H49.6058H49.5859ZM51.7655 32.7058L51.1085 30.7914C50.9694 30.3527 50.8696 29.9638 50.7702 29.5749H50.7503C50.6506 29.9638 50.5512 30.3726 50.4218 30.7714L49.7648 32.6958H51.7655V32.7058Z" fill="#0A0F1A"/>
<path d="M56.1448 28.9169C56.5824 28.8272 57.1997 28.7773 57.7968 28.7773C58.7024 28.7773 59.3096 28.9468 59.7176 29.3257C60.0458 29.6149 60.2351 30.0735 60.2351 30.592C60.2351 31.4694 59.6779 32.0477 58.9811 32.2871V32.307C59.4885 32.4864 59.7971 32.9651 59.9565 33.653C60.1751 34.5803 60.3345 35.2184 60.4639 35.4777H59.5781C59.4787 35.2882 59.3295 34.7199 59.1404 33.8824C58.9413 32.975 58.5832 32.6161 57.8069 32.5962H57.0006V35.4777H56.1448V28.9269V28.9169ZM57.0006 31.9381H57.8763C58.7921 31.9381 59.3692 31.4395 59.3692 30.6718C59.3692 29.8043 58.7519 29.4354 57.8466 29.4354C57.4285 29.4354 57.1397 29.4753 57.0006 29.5152V31.9381Z" fill="#0A0F1A"/>
<path d="M64.2958 29.5448H62.2751V28.8169H67.1917V29.5448H65.1617V35.4674H64.2958V29.5448Z" fill="#0A0F1A"/>
<path d="M69.3815 35.4677V28.8271H70.3269L72.4465 32.1873C72.9344 32.965 73.3124 33.663 73.6312 34.3509H73.6507C73.5712 33.4536 73.5615 32.6459 73.5615 31.609V28.8271H74.3674V35.4677H73.4917L71.3818 32.0975C70.9239 31.3498 70.4762 30.592 70.1476 29.8741H70.118C70.1675 30.7216 70.1776 31.5292 70.1776 32.626V35.4677H69.3713H69.3815Z" fill="#0A0F1A"/>
<path d="M80.9266 32.3561H78.3588V34.7591H81.2349V35.477H77.5027V28.8364H81.0856V29.5543H78.3588V31.6582H80.9266V32.3661V32.3561Z" fill="#0A0F1A"/>
<path d="M83.9917 28.9169C84.4297 28.8272 85.0466 28.7773 85.644 28.7773C86.5497 28.7773 87.1569 28.9468 87.5649 29.3257C87.8934 29.6149 88.0824 30.0735 88.0824 30.592C88.0824 31.4694 87.5248 32.0477 86.8284 32.2871V32.307C87.3358 32.4864 87.6444 32.9651 87.8038 33.653C88.0228 34.5803 88.1818 35.2184 88.3112 35.4777H87.4254C87.326 35.2882 87.1767 34.7199 86.9874 33.8824C86.7886 32.975 86.4301 32.6161 85.6538 32.5962H84.8479V35.4777H83.9917V28.9269V28.9169ZM84.8479 31.9381H85.7235C86.639 31.9381 87.2165 31.4395 87.2165 30.6718C87.2165 29.8043 86.5996 29.4354 85.6939 29.4354C85.2758 29.4354 84.987 29.4753 84.8479 29.5152V31.9381Z" fill="#0A0F1A"/>
<path fill-rule="evenodd" clip-rule="evenodd" d="M35.4173 6.51758H6.50537V35.4827H35.4173V6.51758ZM21.8125 14.3848C21.8125 13.996 21.7627 13.4476 21.5736 12.979C22.1608 13.0886 22.4594 13.7567 22.5788 14.1455C22.35 14.2153 22.0911 14.2951 21.8125 14.3848ZM18.7173 19.5796C18.737 19.907 19.093 20.1329 19.5237 20.4062C20.1817 20.8238 21.0138 21.3518 21.086 22.521C21.1855 24.0465 20.2699 25.0835 18.9562 25.1732C17.3737 25.2729 16.5079 24.3456 16.5079 24.3456L16.8462 22.9398C16.8462 22.9398 17.722 23.5978 18.4187 23.548C18.8765 23.5181 19.0357 23.1491 19.0258 22.8899C18.9952 22.4181 18.6362 22.1645 18.2322 21.8793C17.7142 21.5134 17.1223 21.0953 17.0552 20.0981C16.9557 18.6025 17.9509 17.0969 20.1305 16.9573C20.9665 16.9074 21.4044 17.1168 21.4044 17.1168L20.9068 18.9714C20.9068 18.9714 20.3495 18.7221 19.6926 18.762C18.7272 18.8218 18.7173 19.43 18.7272 19.5796H18.7173ZM20.2301 12.5004C20.4092 12.5004 20.5684 12.5402 20.6978 12.62C20.4888 12.7297 20.2798 12.8892 20.0907 13.0886C19.5931 13.6171 19.2149 14.4347 19.0656 15.2224C18.759 15.3204 18.4525 15.4141 18.1599 15.5036C18.0061 15.5506 17.8562 15.5965 17.7121 15.6411C17.9808 14.3948 19.0258 12.5402 20.2301 12.5004ZM21.2949 14.5444C21.1175 14.5991 20.9342 14.6549 20.7471 14.712C20.3884 14.8213 20.0155 14.935 19.6428 15.0529C19.8021 14.4446 20.1107 13.8464 20.4789 13.4476C20.6182 13.298 20.8073 13.1385 21.0362 13.0388C21.2551 13.4875 21.2949 14.1156 21.2949 14.5444ZM23.5541 13.8464C23.5541 13.8464 23.375 13.9062 23.0765 13.996C23.0267 13.8364 22.9471 13.637 22.8476 13.4376C22.5092 12.7895 22.0115 12.4505 21.4044 12.4505H21.275L21.2154 12.3907C20.9566 12.1115 20.6182 11.9719 20.2102 11.9918C19.4339 12.0118 18.6575 12.5701 18.0206 13.5672C17.5727 14.2652 17.2443 15.1426 17.1447 15.8206C16.249 16.0998 15.6221 16.2892 15.6121 16.2892C15.1643 16.4289 15.1443 16.4388 15.0846 16.8676C15.0448 17.1866 13.8605 26.25 13.8605 26.25L23.6736 27.9351V13.8364C23.6736 13.8364 23.584 13.8464 23.5541 13.8564V13.8464ZM28.0727 27.008L23.833 28.015V14.1058C24.1116 14.3651 24.8382 15.0331 24.8382 15.0331C24.8382 15.0331 26.0324 15.053 26.0921 15.053C26.1518 15.053 26.2314 15.1029 26.2414 15.1826C26.2513 15.2624 28.0727 27.008 28.0727 27.008Z" fill="#0A0F1A"/>
</svg>
